{"glyphs":{"0":{"ha":972,"x_min":0,"x_max":0,"o":"m 486 -7 b 875 486 765 -7 875 211 b 486 979 875 760 767 979 b 97 486 208 979 97 767 b 486 -7 97 208 204 -7 z m 276 138 b 164 486 199 213 164 338 b 486 913 164 711 240 913 b 642 876 549 913 600 900 z m 486 60 b 331 97 425 60 372 72 l 696 836 b 808 486 776 758 808 629 b 486 60 808 246 715 60 z "},"1":{"ha":972,"x_min":0,"x_max":0,"o":"m 715 67 l 531 58 l 531 939 b 476 967 531 967 494 981 l 267 828 b 303 772 228 803 269 749 l 464 886 l 464 58 l 274 67 b 274 0 229 68 229 0 l 715 0 b 715 67 760 0 760 68 z "},"2":{"ha":972,"x_min":0,"x_max":0,"o":"m 172 0 l 799 0 b 799 67 842 0 844 67 l 207 60 b 528 408 219 249 350 326 b 808 703 690 482 808 551 b 478 979 808 885 660 979 b 151 767 322 979 151 904 b 218 767 151 722 218 724 b 478 913 218 864 368 913 b 742 703 624 913 742 843 b 500 469 742 583 639 533 b 139 33 272 365 139 267 b 172 0 139 15 153 1 z "},"3":{"ha":972,"x_min":0,"x_max":0,"o":"m 833 271 b 639 517 833 385 760 471 b 792 731 733 558 792 632 b 439 979 792 893 632 979 b 186 914 336 979 249 957 b 225 858 150 888 188 835 b 439 913 275 894 350 913 b 725 731 589 913 725 856 b 439 547 725 606 593 547 b 439 481 394 547 394 481 b 767 271 633 481 767 403 b 439 60 767 126 615 60 b 193 122 336 60 251 82 b 154 68 157 149 118 94 b 439 -7 224 19 322 -7 b 833 271 651 -7 833 83 z "},"4":{"ha":972,"x_min":0,"x_max":0,"o":"m 653 33 b 719 33 653 -12 719 -10 l 719 197 l 799 197 l 800 197 b 800 264 843 197 844 264 l 719 264 l 719 939 b 658 958 719 972 675 985 l 146 251 b 172 199 129 232 146 199 l 653 197 z m 238 265 l 653 836 l 653 264 z "},"5":{"ha":972,"x_min":0,"x_max":0,"o":"m 439 -7 b 833 306 663 -7 833 103 b 439 618 833 508 660 618 b 222 575 357 618 282 603 l 283 906 l 718 906 b 718 972 763 906 763 972 l 256 972 b 222 944 239 972 226 961 l 142 514 b 196 482 139 482 174 463 b 439 551 254 528 338 551 b 767 306 626 551 767 467 b 439 60 767 138 619 60 b 194 131 338 60 253 85 b 153 79 163 160 117 108 b 439 -7 222 22 322 -7 z "},"6":{"ha":972,"x_min":0,"x_max":0,"o":"m 501 -7 b 854 331 714 -7 854 125 b 501 629 854 507 703 629 b 183 510 376 629 282 586 b 503 913 192 728 294 913 b 779 757 688 913 743 825 b 840 788 797 722 858 750 b 503 979 800 871 714 979 b 117 489 257 979 117 765 b 501 -7 117 210 233 -7 z m 501 60 b 186 418 300 60 204 203 b 501 563 214 450 324 563 b 788 331 660 563 788 475 b 501 60 788 165 679 60 z "},"7":{"ha":972,"x_min":0,"x_max":0,"o":"m 308 17 l 829 921 b 797 972 847 951 832 972 l 172 972 b 172 906 128 972 128 906 l 743 904 l 251 50 b 308 17 229 10 290 -19 z "},"8":{"ha":972,"x_min":0,"x_max":0,"o":"m 486 -7 b 839 282 686 -7 839 99 b 654 543 839 403 768 503 b 774 742 728 583 774 658 b 486 979 774 888 653 979 b 199 742 324 979 199 890 b 318 543 199 658 246 579 b 133 282 203 499 133 404 b 486 -7 133 100 283 -7 z m 486 572 b 265 742 363 572 265 628 b 486 913 265 851 357 913 b 707 742 611 913 707 854 b 486 572 707 635 615 572 z m 486 60 b 200 282 325 60 200 133 b 486 506 200 426 321 506 b 772 282 646 506 772 431 b 486 60 772 138 650 60 z "},"9":{"ha":972,"x_min":0,"x_max":0,"o":"m 469 979 b 117 642 257 979 117 847 b 469 343 117 465 268 343 b 788 463 594 343 689 386 b 468 60 779 244 676 60 b 192 215 283 60 228 147 b 131 185 174 250 113 222 b 468 -7 171 101 257 -7 b 854 483 714 -7 854 207 b 469 979 854 763 738 979 z m 469 913 b 785 554 671 913 767 769 b 469 410 757 522 647 410 b 183 642 311 410 183 497 b 469 913 183 807 292 913 z "},"A":{"ha":972,"x_min":0,"x_max":0,"o":"m 157 21 l 243 238 l 728 238 l 815 21 b 878 49 833 -24 893 11 l 518 949 b 456 949 504 983 471 986 l 94 49 b 157 21 78 8 140 -21 z m 269 306 l 486 853 l 703 306 z "},"Á":{"ha":972,"x_min":0,"x_max":0,"o":"m 539 1061 l 617 1233 b 554 1254 636 1276 571 1301 l 496 1081 b 539 1061 486 1050 528 1038 z m 157 21 l 243 238 l 728 238 l 815 21 b 878 49 833 -24 893 11 l 518 949 b 456 949 504 983 471 986 l 94 49 b 157 21 78 8 140 -21 z m 269 306 l 486 853 l 703 306 z "},"Ă":{"ha":972,"x_min":0,"x_max":0,"o":"m 488 1042 b 656 1176 569 1042 639 1099 b 590 1188 664 1218 597 1229 b 385 1188 561 1083 414 1082 b 319 1178 376 1229 311 1218 b 488 1042 336 1100 404 1042 z m 157 21 l 243 238 l 728 238 l 815 21 b 878 49 833 -24 893 11 l 518 949 b 456 949 504 983 471 986 l 94 49 b 157 21 78 8 140 -21 z m 269 306 l 486 853 l 703 306 z "},"Â":{"ha":972,"x_min":0,"x_max":0,"o":"m 333 1125 b 378 1067 294 1099 340 1038 l 486 1147 l 592 1067 b 638 1125 631 1036 678 1099 b 504 1208 569 1171 519 1208 l 467 1208 b 333 1125 451 1208 403 1171 z m 157 21 l 243 238 l 728 238 l 815 21 b 878 49 833 -24 893 11 l 518 949 b 456 949 504 983 471 986 l 94 49 b 157 21 78 8 140 -21 z m 269 306 l 486 853 l 703 306 z "},"Ä":{"ha":972,"x_min":0,"x_max":0,"o":"m 368 1042 b 435 1101 404 1042 435 1065 b 368 1161 435 1139 404 1161 b 301 1101 331 1161 301 1139 b 368 1042 301 1065 331 1042 z m 604 1042 b 671 1101 640 1042 671 1065 b 604 1161 671 1139 640 1161 b 538 1101 567 1161 538 1139 b 604 1042 538 1065 567 1042 z m 157 21 l 243 238 l 728 238 l 815 21 b 878 49 833 -24 893 11 l 518 949 b 456 949 504 983 471 986 l 94 49 b 157 21 78 8 140 -21 z m 269 306 l 486 853 l 703 306 z "},"À":{"ha":972,"x_min":0,"x_max":0,"o":"m 474 1061 b 517 1081 485 1038 526 1050 l 458 1254 b 396 1233 442 1301 376 1276 z m 157 21 l 243 238 l 728 238 l 815 21 b 878 49 833 -24 893 11 l 518 949 b 456 949 504 983 471 986 l 94 49 b 157 21 78 8 140 -21 z m 269 306 l 486 853 l 703 306 z "},"Ā":{"ha":972,"x_min":0,"x_max":0,"o":"m 331 1106 b 331 1042 288 1106 289 1042 l 640 1042 b 640 1106 683 1042 682 1106 z m 157 21 l 243 238 l 728 238 l 815 21 b 878 49 833 -24 893 11 l 518 949 b 456 949 504 983 471 986 l 94 49 b 157 21 78 8 140 -21 z m 269 306 l 486 853 l 703 306 z "},"Ą":{"ha":972,"x_min":0,"x_max":0,"o":"m 892 -136 b 782 -121 878 -174 813 -165 b 807 0 761 -89 757 -57 b 839 33 822 4 836 17 b 836 49 839 39 839 43 l 476 949 b 414 949 463 983 429 986 l 53 49 b 115 21 36 8 99 -21 l 201 238 l 686 238 l 763 47 b 726 -158 711 -11 668 -68 b 953 -162 788 -246 914 -250 b 892 -136 971 -126 914 -93 z m 228 306 l 444 853 l 661 306 z "},"Å":{"ha":972,"x_min":0,"x_max":0,"o":"m 486 1042 b 611 1168 556 1042 611 1097 b 486 1293 611 1238 556 1293 b 360 1168 415 1293 360 1238 b 486 1042 360 1097 415 1042 z m 486 1103 b 421 1168 447 1103 421 1132 b 486 1232 421 1203 447 1232 b 549 1168 521 1232 549 1203 b 486 1103 549 1132 521 1103 z m 157 21 l 243 238 l 728 238 l 815 21 b 878 49 833 -24 893 11 l 518 949 b 456 949 504 983 471 986 l 94 49 b 157 21 78 8 140 -21 z m 269 306 l 486 853 l 703 306 z "},"Ã":{"ha":972,"x_min":0,"x_max":0,"o":"m 257 1078 b 321 1069 250 1036 314 1028 b 393 1129 329 1103 351 1129 b 599 1044 482 1129 493 1044 b 715 1157 660 1044 704 1090 b 651 1164 721 1200 658 1207 b 599 1108 647 1135 632 1108 b 393 1193 522 1108 494 1193 b 257 1078 324 1193 271 1149 z m 157 21 l 243 238 l 728 238 l 815 21 b 878 49 833 -24 893 11 l 518 949 b 456 949 504 983 471 986 l 94 49 b 157 21 78 8 140 -21 z m 269 306 l 486 853 l 703 306 z "},"Æ":{"ha":972,"x_min":0,"x_max":0,"o":"m 51 49 b 114 21 35 8 97 -21 l 200 238 l 417 238 l 417 46 b 463 0 417 21 438 0 l 889 0 b 889 68 935 0 935 68 l 485 68 l 485 451 l 775 451 b 775 521 821 451 821 521 l 485 521 l 485 904 l 889 904 b 889 972 936 904 933 972 l 475 972 b 413 949 475 972 424 978 z m 226 306 l 417 786 l 417 306 z "},"B":{"ha":972,"x_min":0,"x_max":0,"o":"m 172 0 l 574 0 b 671 503 857 0 933 394 b 517 972 871 654 765 972 l 172 972 b 138 938 153 972 138 957 l 138 35 b 172 0 138 15 153 0 z m 206 521 l 206 904 l 517 904 b 517 521 767 904 767 521 z m 206 68 l 206 451 l 574 451 b 574 68 828 451 824 68 z "},"C":{"ha":972,"x_min":0,"x_max":0,"o":"m 506 -7 b 797 136 626 -7 726 43 b 744 176 824 172 771 211 b 506 60 686 99 603 60 b 178 486 283 60 178 251 b 506 913 178 719 285 913 b 743 799 603 913 685 875 b 796 839 769 763 822 804 b 506 979 725 931 625 979 b 111 486 247 979 111 758 b 506 -7 111 211 247 -7 z "},"Ć":{"ha":972,"x_min":0,"x_max":0,"o":"m 557 1061 l 635 1233 b 572 1254 654 1276 589 1301 l 514 1081 b 557 1061 504 1050 546 1038 z m 506 -7 b 797 136 626 -7 726 43 b 744 176 824 172 771 211 b 506 60 686 99 603 60 b 178 486 283 60 178 251 b 506 913 178 719 285 913 b 743 799 603 913 685 875 b 796 839 769 763 822 804 b 506 979 725 931 625 979 b 111 486 247 979 111 758 b 506 -7 111 211 247 -7 z "},"Č":{"ha":972,"x_min":0,"x_max":0,"o":"m 511 1042 l 549 1042 b 682 1125 564 1042 574 1053 b 636 1183 721 1153 675 1214 l 531 1103 l 422 1183 b 378 1125 385 1213 339 1154 b 511 1042 496 1046 496 1042 z m 506 -7 b 797 136 626 -7 726 43 b 744 176 824 172 771 211 b 506 60 686 99 603 60 b 178 486 283 60 178 251 b 506 913 178 719 285 913 b 743 799 603 913 685 875 b 796 839 769 763 822 804 b 506 979 725 931 625 979 b 111 486 247 979 111 758 b 506 -7 111 211 247 -7 z "},"Ç":{"ha":972,"x_min":0,"x_max":0,"o":"m 744 176 b 506 60 686 99 603 60 b 178 486 283 60 178 251 b 506 913 178 719 285 913 b 743 799 603 913 685 875 b 796 839 769 763 822 804 b 506 979 725 931 625 979 b 111 486 247 979 111 758 b 469 -6 111 224 235 14 b 522 -156 547 -82 547 -118 b 413 -171 492 -200 426 -208 b 351 -197 390 -128 333 -161 b 578 -193 390 -285 517 -281 b 556 -4 631 -111 600 -57 b 797 136 654 8 736 56 b 744 176 824 172 771 211 z "},"Ċ":{"ha":972,"x_min":0,"x_max":0,"o":"m 528 1081 b 594 1140 564 1081 594 1104 b 528 1200 594 1178 564 1200 b 461 1140 490 1200 461 1178 b 528 1081 461 1104 490 1081 z m 533 -7 b 825 136 654 -7 754 43 b 772 176 851 172 799 211 b 533 60 714 99 631 60 b 206 486 311 60 206 251 b 533 913 206 719 313 913 b 771 799 631 913 713 875 b 824 839 797 763 850 804 b 533 979 753 931 653 979 b 139 486 275 979 139 758 b 533 -7 139 211 275 -7 z "},"D":{"ha":972,"x_min":0,"x_max":0,"o":"m 847 485 b 453 971 847 774 731 971 l 147 971 b 111 938 128 971 111 957 l 111 33 b 144 0 111 15 126 0 l 453 0 b 847 485 719 0 847 197 z m 453 67 l 178 67 l 178 904 l 453 904 b 781 485 688 904 781 739 b 453 67 781 240 688 67 z "},"Ð":{"ha":972,"x_min":0,"x_max":0,"o":"m 847 485 b 453 971 847 774 731 971 l 147 971 b 111 938 128 971 111 957 l 111 518 l -131 518 b -131 454 -172 518 -171 454 l 111 454 l 111 33 b 144 0 111 15 126 0 l 453 0 b 847 485 719 0 847 197 z m 453 67 l 178 67 l 178 454 l 431 454 b 431 518 471 454 472 518 l 178 518 l 178 904 l 453 904 b 781 485 688 904 781 739 b 453 67 781 240 688 67 z "},"Ď":{"ha":972,"x_min":0,"x_max":0,"o":"m 264 1125 b 397 1042 382 1046 382 1042 l 435 1042 b 568 1125 450 1042 460 1053 b 522 1183 607 1153 561 1214 l 417 1103 l 308 1183 b 264 1125 271 1213 225 1154 z m 847 485 b 453 971 847 774 731 971 l 147 971 b 111 938 128 971 111 957 l 111 33 b 144 0 111 15 126 0 l 453 0 b 847 485 719 0 847 197 z m 453 67 l 178 67 l 178 904 l 453 904 b 781 485 688 904 781 739 b 453 67 781 240 688 67 z "},"Đ":{"ha":972,"x_min":0,"x_max":0,"o":"m 847 485 b 453 971 847 774 731 971 l 147 971 b 111 938 128 971 111 957 l 111 518 l -131 518 b -131 454 -172 518 -171 454 l 111 454 l 111 33 b 144 0 111 15 126 0 l 453 0 b 847 485 719 0 847 197 z m 453 67 l 178 67 l 178 454 l 431 454 b 431 518 471 454 472 518 l 178 518 l 178 904 l 453 904 b 781 485 688 904 781 739 b 453 67 781 240 688 67 z "},"E":{"ha":972,"x_min":0,"x_max":0,"o":"m 185 0 l 799 0 b 833 35 818 0 833 15 b 799 68 833 53 818 68 l 207 68 l 207 451 l 650 451 b 685 486 669 451 685 467 b 650 521 685 506 669 521 l 207 521 l 207 904 l 799 904 b 833 938 818 904 833 919 b 799 972 833 957 818 972 l 185 972 b 139 926 160 972 139 951 l 139 46 b 185 0 139 21 160 0 z "},"É":{"ha":972,"x_min":0,"x_max":0,"o":"m 468 1061 l 546 1233 b 483 1254 565 1276 500 1301 l 425 1081 b 468 1061 415 1050 457 1038 z m 185 0 l 799 0 b 833 35 818 0 833 15 b 799 68 833 53 818 68 l 207 68 l 207 451 l 650 451 b 685 486 669 451 685 467 b 650 521 685 506 669 521 l 207 521 l 207 904 l 799 904 b 833 938 818 904 833 919 b 799 972 833 957 818 972 l 185 972 b 139 926 160 972 139 951 l 139 46 b 185 0 139 21 160 0 z "},"Ě":{"ha":972,"x_min":0,"x_max":0,"o":"m 468 1042 l 506 1042 b 639 1125 521 1042 531 1053 b 593 1183 678 1153 632 1214 l 488 1103 l 379 1183 b 335 1125 342 1213 296 1154 b 468 1042 453 1046 453 1042 z m 185 0 l 799 0 b 833 35 818 0 833 15 b 799 68 833 53 818 68 l 207 68 l 207 451 l 650 451 b 685 486 669 451 685 467 b 650 521 685 506 669 521 l 207 521 l 207 904 l 799 904 b 833 938 818 904 833 919 b 799 972 833 957 818 972 l 185 972 b 139 926 160 972 139 951 l 139 46 b 185 0 139 21 160 0 z "},"Ê":{"ha":972,"x_min":0,"x_max":0,"o":"m 333 1125 b 378 1067 294 1099 340 1038 l 486 1147 l 592 1067 b 638 1125 631 1036 678 1099 b 504 1208 569 1171 519 1208 l 467 1208 b 333 1125 451 1208 403 1171 z m 185 0 l 799 0 b 833 35 818 0 833 15 b 799 68 833 53 818 68 l 207 68 l 207 451 l 650 451 b 685 486 669 451 685 467 b 650 521 685 506 669 521 l 207 521 l 207 904 l 799 904 b 833 938 818 904 833 919 b 799 972 833 957 818 972 l 185 972 b 139 926 160 972 139 951 l 139 46 b 185 0 139 21 160 0 z "},"Ë":{"ha":972,"x_min":0,"x_max":0,"o":"m 368 1058 b 435 1118 404 1058 435 1082 b 368 1178 435 1156 404 1178 b 301 1118 331 1178 301 1156 b 368 1058 301 1082 331 1058 z m 604 1058 b 671 1118 640 1058 671 1082 b 604 1178 671 1156 640 1178 b 538 1118 567 1178 538 1156 b 604 1058 538 1082 567 1058 z m 185 0 l 799 0 b 833 35 818 0 833 15 b 799 68 833 53 818 68 l 207 68 l 207 451 l 650 451 b 685 486 669 451 685 467 b 650 521 685 506 669 521 l 207 521 l 207 904 l 799 904 b 833 938 818 904 833 919 b 799 972 833 957 818 972 l 185 972 b 139 926 160 972 139 951 l 139 46 b 185 0 139 21 160 0 z "},"Ė":{"ha":972,"x_min":0,"x_max":0,"o":"m 486 1069 b 553 1129 522 1069 553 1093 b 486 1189 553 1167 522 1189 b 419 1129 449 1189 419 1167 b 486 1069 419 1093 449 1069 z m 185 0 l 799 0 b 833 35 818 0 833 15 b 799 68 833 53 818 68 l 207 68 l 207 451 l 650 451 b 685 486 669 451 685 467 b 650 521 685 506 669 521 l 207 521 l 207 904 l 799 904 b 833 938 818 904 833 919 b 799 972 833 957 818 972 l 185 972 b 139 926 160 972 139 951 l 139 46 b 185 0 139 21 160 0 z "},"È":{"ha":972,"x_min":0,"x_max":0,"o":"m 504 1061 b 547 1081 515 1038 557 1050 l 489 1254 b 426 1233 472 1301 407 1276 z m 185 0 l 799 0 b 833 35 818 0 833 15 b 799 68 833 53 818 68 l 207 68 l 207 451 l 650 451 b 685 486 669 451 685 467 b 650 521 685 506 669 521 l 207 521 l 207 904 l 799 904 b 833 938 818 904 833 919 b 799 972 833 957 818 972 l 185 972 b 139 926 160 972 139 951 l 139 46 b 185 0 139 21 160 0 z "},"Ē":{"ha":972,"x_min":0,"x_max":0,"o":"m 332 1106 b 332 1042 289 1106 290 1042 l 642 1042 b 642 1106 685 1042 683 1106 z m 185 0 l 799 0 b 833 35 818 0 833 15 b 799 68 833 53 818 68 l 207 68 l 207 451 l 650 451 b 685 486 669 451 685 467 b 650 521 685 506 669 521 l 207 521 l 207 904 l 799 904 b 833 938 818 904 833 919 b 799 972 833 957 818 972 l 185 972 b 139 926 160 972 139 951 l 139 46 b 185 0 139 21 160 0 z "},"Ę":{"ha":972,"x_min":0,"x_max":0,"o":"m 815 -171 b 706 -156 801 -208 736 -200 b 763 -1 681 -118 681 -81 l 757 0 l 799 0 b 833 35 818 0 833 15 b 799 68 833 53 818 68 l 207 68 l 207 451 l 650 451 b 685 486 669 451 685 467 b 650 521 685 506 669 521 l 207 521 l 207 904 l 799 904 b 833 938 818 904 833 919 b 799 972 833 957 818 972 l 185 972 b 139 926 160 972 139 951 l 139 46 b 185 0 139 21 160 0 l 675 0 b 650 -193 629 -54 596 -110 b 876 -197 711 -281 838 -285 b 815 -171 894 -161 838 -128 z "},"F":{"ha":972,"x_min":0,"x_max":0,"o":"m 174 0 b 207 35 192 0 207 15 l 207 451 l 650 451 b 685 486 669 451 685 468 b 650 521 685 504 669 521 l 207 521 l 207 904 l 799 904 b 833 938 818 904 833 919 b 799 972 833 957 818 972 l 185 972 b 139 926 158 972 139 953 l 139 35 b 174 0 139 15 154 0 z "},"G":{"ha":972,"x_min":0,"x_max":0,"o":"m 539 -7 b 861 135 667 -7 781 39 b 869 157 867 140 869 149 l 869 488 b 836 521 869 506 854 521 l 486 521 b 486 454 442 521 442 454 l 803 454 l 803 169 b 539 60 736 96 647 60 b 168 486 293 60 168 243 b 539 913 168 733 300 913 b 810 797 646 913 740 875 b 860 840 838 763 890 807 b 539 979 782 931 671 979 b 101 486 264 979 101 771 b 539 -7 101 196 267 -7 z "},"Ğ":{"ha":972,"x_min":0,"x_max":0,"o":"m 514 1042 b 682 1176 596 1042 665 1099 b 617 1188 690 1218 624 1229 b 411 1188 588 1083 440 1082 b 346 1178 403 1229 338 1218 b 514 1042 363 1100 431 1042 z m 539 -7 b 861 135 667 -7 781 39 b 869 157 867 140 869 149 l 869 488 b 836 521 869 506 854 521 l 486 521 b 486 454 442 521 442 454 l 803 454 l 803 169 b 539 60 736 96 647 60 b 168 486 293 60 168 243 b 539 913 168 733 300 913 b 810 797 646 913 740 875 b 860 840 838 763 890 807 b 539 979 782 931 671 979 b 101 486 264 979 101 771 b 539 -7 101 196 267 -7 z "},"Ģ":{"ha":972,"x_min":0,"x_max":0,"o":"m 836 521 l 486 521 b 486 454 442 521 442 454 l 803 454 l 803 169 b 539 60 736 96 647 60 b 168 486 293 60 168 243 b 539 913 168 733 300 913 b 810 797 646 913 740 875 b 860 840 838 763 890 807 b 539 979 782 931 671 979 b 101 486 264 979 101 771 b 539 -7 101 196 267 -7 b 861 135 667 -7 781 39 b 869 157 867 140 869 149 l 869 488 b 836 521 869 506 854 521 z m 563 -171 l 563 -164 b 504 -112 563 -133 536 -112 b 444 -164 471 -112 444 -133 b 504 -217 444 -197 471 -217 l 506 -217 b 461 -269 504 -239 494 -262 b 464 -310 436 -272 439 -312 b 543 -265 494 -307 519 -297 b 563 -171 558 -240 564 -208 z "},"Ġ":{"ha":972,"x_min":0,"x_max":0,"o":"m 528 1069 b 594 1129 564 1069 594 1093 b 528 1189 594 1167 564 1189 b 461 1129 490 1189 461 1167 b 528 1069 461 1093 490 1069 z m 539 -7 b 861 135 667 -7 781 39 b 869 157 867 140 869 149 l 869 488 b 836 521 869 506 854 521 l 486 521 b 486 454 442 521 442 454 l 803 454 l 803 169 b 539 60 736 96 647 60 b 168 486 293 60 168 243 b 539 913 168 733 300 913 b 810 797 646 913 740 875 b 860 840 838 763 890 807 b 539 979 782 931 671 979 b 101 486 264 979 101 771 b 539 -7 101 196 267 -7 z "},"H":{"ha":972,"x_min":0,"x_max":0,"o":"m 139 35 b 207 35 139 -11 207 -11 l 207 451 l 765 451 l 765 35 b 833 35 765 -12 833 -10 l 833 938 b 765 938 833 983 765 983 l 765 521 l 207 521 l 207 938 b 139 938 207 985 139 982 z "},"Ħ":{"ha":972,"x_min":0,"x_max":0,"o":"m 942 817 l 833 817 l 833 938 b 765 938 833 983 765 983 l 765 817 l 207 817 l 207 938 b 139 938 207 985 139 982 l 139 817 l 31 817 b 31 753 -11 817 -10 753 l 139 753 l 139 35 b 207 35 139 -11 207 -11 l 207 451 l 765 451 l 765 35 b 833 35 765 -12 833 -10 l 833 753 l 942 753 b 942 817 982 753 983 817 z m 765 521 l 207 521 l 207 753 l 765 753 z "},"I":{"ha":972,"x_min":0,"x_max":0,"o":"m 172 0 l 800 0 b 833 35 818 0 833 15 b 800 68 833 53 818 68 l 521 61 l 521 911 l 800 904 b 833 938 818 904 833 919 b 800 972 833 957 818 972 l 172 972 b 139 938 154 972 139 957 b 172 904 139 919 154 904 l 451 911 l 451 61 l 172 68 b 139 35 154 68 139 53 b 172 0 139 15 154 0 z "},"Í":{"ha":972,"x_min":0,"x_max":0,"o":"m 508 1061 l 586 1233 b 524 1254 606 1276 540 1301 l 465 1081 b 508 1061 456 1050 497 1038 z m 172 0 l 800 0 b 833 35 818 0 833 15 b 800 68 833 53 818 68 l 521 61 l 521 911 l 800 904 b 833 938 818 904 833 919 b 800 972 833 957 818 972 l 172 972 b 139 938 154 972 139 957 b 172 904 139 919 154 904 l 451 911 l 451 61 l 172 68 b 139 35 154 68 139 53 b 172 0 139 15 154 0 z "},"Î":{"ha":972,"x_min":0,"x_max":0,"o":"m 333 1125 b 378 1067 294 1099 340 1038 l 486 1147 l 592 1067 b 638 1125 631 1036 678 1099 b 504 1208 569 1171 519 1208 l 467 1208 b 333 1125 451 1208 403 1171 z m 172 0 l 800 0 b 833 35 818 0 833 15 b 800 68 833 53 818 68 l 521 61 l 521 911 l 800 904 b 833 938 818 904 833 919 b 800 972 833 957 818 972 l 172 972 b 139 938 154 972 139 957 b 172 904 139 919 154 904 l 451 911 l 451 61 l 172 68 b 139 35 154 68 139 53 b 172 0 139 15 154 0 z "},"Ï":{"ha":972,"x_min":0,"x_max":0,"o":"m 368 1042 b 435 1101 404 1042 435 1065 b 368 1161 435 1139 404 1161 b 301 1101 331 1161 301 1139 b 368 1042 301 1065 331 1042 z m 604 1042 b 671 1101 640 1042 671 1065 b 604 1161 671 1139 640 1161 b 538 1101 567 1161 538 1139 b 604 1042 538 1065 567 1042 z m 172 0 l 800 0 b 833 35 818 0 833 15 b 800 68 833 53 818 68 l 521 61 l 521 911 l 800 904 b 833 938 818 904 833 919 b 800 972 833 957 818 972 l 172 972 b 139 938 154 972 139 957 b 172 904 139 919 154 904 l 451 911 l 451 61 l 172 68 b 139 35 154 68 139 53 b 172 0 139 15 154 0 z "},"İ":{"ha":972,"x_min":0,"x_max":0,"o":"m 486 1069 b 553 1129 522 1069 553 1093 b 486 1189 553 1167 522 1189 b 419 1129 449 1189 419 1167 b 486 1069 419 1093 449 1069 z m 172 0 l 800 0 b 833 35 818 0 833 15 b 800 68 833 53 818 68 l 521 61 l 521 911 l 800 904 b 833 938 818 904 833 919 b 800 972 833 957 818 972 l 172 972 b 139 938 154 972 139 957 b 172 904 139 919 154 904 l 451 911 l 451 61 l 172 68 b 139 35 154 68 139 53 b 172 0 139 15 154 0 z "},"Ì":{"ha":972,"x_min":0,"x_max":0,"o":"m 461 1061 b 504 1081 472 1038 514 1050 l 446 1254 b 383 1233 429 1301 364 1276 z m 172 0 l 800 0 b 833 35 818 0 833 15 b 800 68 833 53 818 68 l 521 61 l 521 911 l 800 904 b 833 938 818 904 833 919 b 800 972 833 957 818 972 l 172 972 b 139 938 154 972 139 957 b 172 904 139 919 154 904 l 451 911 l 451 61 l 172 68 b 139 35 154 68 139 53 b 172 0 139 15 154 0 z "},"Ī":{"ha":972,"x_min":0,"x_max":0,"o":"m 332 1106 b 332 1042 289 1106 290 1042 l 642 1042 b 642 1106 685 1042 683 1106 z m 172 0 l 800 0 b 833 35 818 0 833 15 b 800 68 833 53 818 68 l 521 61 l 521 911 l 800 904 b 833 938 818 904 833 919 b 800 972 833 957 818 972 l 172 972 b 139 938 154 972 139 957 b 172 904 139 919 154 904 l 451 911 l 451 61 l 172 68 b 139 35 154 68 139 53 b 172 0 139 15 154 0 z "},"Į":{"ha":972,"x_min":0,"x_max":0,"o":"m 800 68 l 521 68 l 521 904 l 800 904 b 833 938 818 904 833 919 b 800 972 833 957 818 972 l 172 972 b 139 938 154 972 139 957 b 172 904 139 919 154 904 l 451 904 l 451 68 l 172 68 b 139 35 154 68 139 53 b 172 0 139 15 154 0 l 433 0 b 408 -193 388 -54 354 -110 b 635 -197 469 -281 596 -285 b 574 -171 653 -161 596 -128 b 464 -156 560 -208 494 -200 b 521 -1 439 -118 439 -81 l 515 0 l 800 0 b 833 35 818 0 833 15 b 800 68 833 53 818 68 z "},"J":{"ha":972,"x_min":0,"x_max":0,"o":"m 454 -7 b 808 260 646 -7 808 85 l 808 939 b 742 939 808 982 742 985 l 742 260 b 454 60 742 121 606 60 b 181 188 349 60 192 101 b 114 176 171 232 107 221 b 454 -7 136 53 306 -7 z "},"K":{"ha":972,"x_min":0,"x_max":0,"o":"m 774 11 b 824 58 801 -24 854 19 l 424 563 l 817 911 b 774 965 853 943 807 996 l 206 450 l 206 939 b 138 939 206 983 138 983 l 138 35 b 206 35 138 -12 206 -10 l 206 361 l 372 517 z "},"Ķ":{"ha":972,"x_min":0,"x_max":0,"o":"m 824 58 l 424 563 l 817 911 b 774 965 853 943 807 996 l 206 450 l 206 939 b 138 939 206 983 138 983 l 138 35 b 206 35 138 -12 206 -10 l 206 361 l 372 517 l 774 11 b 824 58 801 -24 854 19 z m 513 -181 l 513 -174 b 457 -125 513 -144 488 -125 b 400 -174 426 -125 400 -144 b 457 -225 400 -206 426 -225 l 458 -225 b 417 -274 457 -246 447 -268 b 418 -312 392 -276 394 -315 b 494 -269 447 -310 472 -300 b 513 -181 508 -246 514 -217 z "},"L":{"ha":972,"x_min":0,"x_max":0,"o":"m 172 0 l 799 0 b 799 68 844 0 844 68 l 206 68 l 206 938 b 138 938 206 985 138 982 l 138 35 b 172 0 138 15 153 0 z "},"Ĺ":{"ha":972,"x_min":0,"x_max":0,"o":"m 194 1061 l 272 1233 b 210 1254 292 1276 226 1301 l 151 1081 b 194 1061 142 1050 183 1038 z m 172 0 l 799 0 b 799 68 844 0 844 68 l 206 68 l 206 938 b 138 938 206 985 138 982 l 138 35 b 172 0 138 15 153 0 z "},"Ľ":{"ha":972,"x_min":0,"x_max":0,"o":"m 172 0 l 799 0 b 799 68 844 0 844 68 l 206 68 l 206 938 b 138 938 206 985 138 982 l 138 35 b 172 0 138 15 153 0 z m 396 749 b 471 749 397 715 469 715 l 478 935 b 386 935 479 985 383 985 z "},"Ļ":{"ha":972,"x_min":0,"x_max":0,"o":"m 799 68 l 206 68 l 206 938 b 138 938 206 985 138 982 l 138 35 b 172 0 138 15 153 0 l 799 0 b 799 68 844 0 844 68 z m 515 -153 l 515 -146 b 458 -94 515 -115 490 -94 b 400 -146 426 -94 400 -115 b 458 -197 400 -179 426 -197 l 460 -197 b 417 -249 458 -219 449 -243 b 419 -289 392 -251 394 -290 b 496 -244 449 -285 474 -276 b 515 -153 511 -219 517 -189 z "},"Ł":{"ha":972,"x_min":0,"x_max":0,"o":"m 865 68 l 272 68 l 272 549 l 431 644 b 404 686 460 663 426 700 l 272 607 l 272 938 b 204 938 272 985 204 982 l 204 565 l 46 471 b 71 428 11 450 43 411 l 204 508 l 204 35 b 239 0 204 15 219 0 l 865 0 b 865 68 911 0 911 68 z "},"M":{"ha":972,"x_min":0,"x_max":0,"o":"m 139 35 b 207 35 139 -11 207 -11 l 207 807 l 457 357 b 515 357 471 331 501 331 l 765 806 l 765 35 b 833 35 765 -10 833 -12 l 833 938 b 771 956 833 971 788 986 l 486 439 l 201 958 b 139 938 186 986 139 972 z "},"N":{"ha":972,"x_min":0,"x_max":0,"o":"m 772 13 b 833 35 790 -12 833 1 l 833 938 b 765 938 833 983 765 983 l 765 143 l 200 960 b 139 938 182 985 139 971 l 139 35 b 207 35 139 -11 207 -11 l 207 829 z "},"Ń":{"ha":972,"x_min":0,"x_max":0,"o":"m 526 1061 l 604 1233 b 542 1254 624 1276 558 1301 l 483 1081 b 526 1061 474 1050 515 1038 z m 772 13 b 833 35 790 -12 833 1 l 833 938 b 765 938 833 983 765 983 l 765 143 l 200 960 b 139 938 182 985 139 971 l 139 35 b 207 35 139 -11 207 -11 l 207 829 z "},"Ň":{"ha":972,"x_min":0,"x_max":0,"o":"m 468 1042 l 506 1042 b 639 1125 521 1042 531 1053 b 593 1183 678 1153 632 1214 l 488 1103 l 379 1183 b 335 1125 342 1213 296 1154 b 468 1042 453 1046 453 1042 z m 772 13 b 833 35 790 -12 833 1 l 833 938 b 765 938 833 983 765 983 l 765 143 l 200 960 b 139 938 182 985 139 971 l 139 35 b 207 35 139 -11 207 -11 l 207 829 z "},"Ņ":{"ha":972,"x_min":0,"x_max":0,"o":"m 765 938 l 765 143 l 200 960 b 139 938 182 985 139 971 l 139 35 b 207 35 139 -11 207 -11 l 207 829 l 772 13 b 833 35 790 -12 833 1 l 833 938 b 765 938 833 983 765 983 z m 553 -157 l 553 -149 b 478 -82 553 -108 519 -82 b 401 -149 436 -82 401 -108 b 478 -217 401 -192 436 -217 l 479 -217 b 424 -283 478 -246 465 -275 b 426 -336 390 -287 394 -339 b 528 -278 465 -332 499 -319 b 553 -157 547 -246 554 -206 z "},"Ŋ":{"ha":972,"x_min":0,"x_max":0,"o":"m 207 35 l 207 829 l 767 21 l 767 -144 b 471 -204 767 -281 550 -331 b 415 -240 446 -165 393 -204 b 833 -144 529 -419 833 -349 l 833 938 b 765 938 833 983 765 983 l 765 143 l 200 960 b 139 938 182 985 139 971 l 139 35 b 207 35 139 -11 207 -11 z "},"Ñ":{"ha":972,"x_min":0,"x_max":0,"o":"m 257 1078 b 321 1069 250 1036 314 1028 b 393 1129 329 1103 351 1129 b 599 1044 482 1129 493 1044 b 715 1157 660 1044 704 1090 b 651 1164 721 1200 658 1207 b 599 1108 647 1135 632 1108 b 393 1193 522 1108 494 1193 b 257 1078 324 1193 271 1149 z m 772 13 b 833 35 790 -12 833 1 l 833 938 b 765 938 833 983 765 983 l 765 143 l 200 960 b 139 938 182 985 139 971 l 139 35 b 207 35 139 -11 207 -11 l 207 829 z "},"O":{"ha":972,"x_min":0,"x_max":0,"o":"m 486 -7 b 903 486 751 -7 903 211 b 486 979 903 760 753 979 b 69 486 222 979 69 767 b 486 -7 69 208 218 -7 z m 486 60 b 132 486 257 60 132 240 b 486 913 132 725 254 913 b 839 486 710 913 839 733 b 486 60 839 246 715 60 z "},"Ó":{"ha":972,"x_min":0,"x_max":0,"o":"m 510 1061 l 588 1233 b 525 1254 607 1276 542 1301 l 467 1081 b 510 1061 457 1050 499 1038 z m 486 -7 b 903 486 751 -7 903 211 b 486 979 903 760 753 979 b 69 486 222 979 69 767 b 486 -7 69 208 218 -7 z m 486 60 b 132 486 257 60 132 240 b 486 913 132 725 254 913 b 839 486 710 913 839 733 b 486 60 839 246 715 60 z "},"Ô":{"ha":972,"x_min":0,"x_max":0,"o":"m 333 1125 b 378 1067 294 1099 340 1038 l 486 1147 l 592 1067 b 638 1125 631 1036 678 1099 b 504 1208 569 1171 519 1208 l 467 1208 b 333 1125 451 1208 403 1171 z m 486 -7 b 903 486 751 -7 903 211 b 486 979 903 760 753 979 b 69 486 222 979 69 767 b 486 -7 69 208 218 -7 z m 486 60 b 132 486 257 60 132 240 b 486 913 132 725 254 913 b 839 486 710 913 839 733 b 486 60 839 246 715 60 z "},"Ö":{"ha":972,"x_min":0,"x_max":0,"o":"m 368 1042 b 435 1101 404 1042 435 1065 b 368 1161 435 1139 404 1161 b 301 1101 331 1161 301 1139 b 368 1042 301 1065 331 1042 z m 604 1042 b 671 1101 640 1042 671 1065 b 604 1161 671 1139 640 1161 b 538 1101 567 1161 538 1139 b 604 1042 538 1065 567 1042 z m 486 -7 b 903 486 751 -7 903 211 b 486 979 903 760 753 979 b 69 486 222 979 69 767 b 486 -7 69 208 218 -7 z m 486 60 b 132 486 257 60 132 240 b 486 913 132 725 254 913 b 839 486 710 913 839 733 b 486 60 839 246 715 60 z "},"Ò":{"ha":972,"x_min":0,"x_max":0,"o":"m 468 1061 b 511 1081 479 1038 521 1050 l 453 1254 b 390 1233 436 1301 371 1276 z m 486 -7 b 903 486 751 -7 903 211 b 486 979 903 760 753 979 b 69 486 222 979 69 767 b 486 -7 69 208 218 -7 z m 486 60 b 132 486 257 60 132 240 b 486 913 132 725 254 913 b 839 486 710 913 839 733 b 486 60 839 246 715 60 z "},"Ő":{"ha":972,"x_min":0,"x_max":0,"o":"m 461 1061 l 539 1233 b 476 1254 558 1276 493 1301 l 418 1081 b 461 1061 408 1050 450 1038 z m 585 1061 l 663 1233 b 600 1254 682 1276 617 1301 l 542 1081 b 585 1061 532 1050 574 1038 z m 486 -7 b 903 486 751 -7 903 211 b 486 979 903 760 753 979 b 69 486 222 979 69 767 b 486 -7 69 208 218 -7 z m 486 60 b 132 486 257 60 132 240 b 486 913 132 725 254 913 b 839 486 710 913 839 733 b 486 60 839 246 715 60 z "},"Ō":{"ha":972,"x_min":0,"x_max":0,"o":"m 331 1147 b 331 1083 288 1147 289 1083 l 640 1083 b 640 1147 683 1083 682 1147 z m 486 -7 b 903 486 751 -7 903 211 b 486 979 903 760 753 979 b 69 486 222 979 69 767 b 486 -7 69 208 218 -7 z m 486 60 b 132 486 257 60 132 240 b 486 913 132 725 254 913 b 839 486 710 913 839 733 b 486 60 839 246 715 60 z "},"Ø":{"ha":972,"x_min":0,"x_max":0,"o":"m 785 846 l 885 969 b 846 1000 904 997 872 1032 l 750 882 b 486 979 683 943 594 979 b 69 486 222 979 69 767 b 163 154 69 357 101 242 l 56 22 b 94 -8 26 -18 71 -36 l 194 115 b 486 -7 264 39 363 -7 b 903 486 751 -7 903 211 b 785 846 903 629 863 757 z m 132 486 b 486 913 132 725 254 913 b 710 832 576 913 653 883 l 204 207 b 132 486 157 281 132 376 z m 486 60 b 235 167 379 60 294 99 l 744 794 b 839 486 806 719 839 611 b 486 60 839 246 715 60 z "},"Õ":{"ha":972,"x_min":0,"x_max":0,"o":"m 257 1078 b 321 1069 250 1036 314 1028 b 393 1129 329 1103 351 1129 b 599 1044 482 1129 493 1044 b 715 1157 660 1044 704 1090 b 651 1164 721 1200 658 1207 b 599 1108 647 1135 632 1108 b 393 1193 522 1108 494 1193 b 257 1078 324 1193 271 1149 z m 486 -7 b 903 486 751 -7 903 211 b 486 979 903 760 753 979 b 69 486 222 979 69 767 b 486 -7 69 208 218 -7 z m 486 60 b 132 486 257 60 132 240 b 486 913 132 725 254 913 b 839 486 710 913 839 733 b 486 60 839 246 715 60 z "},"Œ":{"ha":972,"x_min":0,"x_max":0,"o":"m 890 68 l 526 68 l 526 451 l 849 451 b 849 521 894 451 894 521 l 526 521 l 526 904 l 890 904 b 890 972 938 904 935 972 l 458 972 b 47 486 199 972 47 763 b 458 0 47 213 194 0 l 890 0 b 890 68 936 0 936 68 z m 110 486 b 458 907 110 722 229 907 l 458 65 b 110 486 232 65 110 243 z "},"P":{"ha":972,"x_min":0,"x_max":0,"o":"m 139 33 b 206 33 139 -11 206 -11 l 206 383 l 440 383 b 833 678 665 383 833 471 b 440 972 833 888 663 972 l 172 972 b 139 939 153 972 139 956 z m 206 450 l 206 906 l 440 906 b 767 678 615 906 767 854 b 440 450 767 511 628 450 z "},"Þ":{"ha":972,"x_min":0,"x_max":0,"o":"m 69 33 b 136 33 69 -11 136 -11 l 136 192 l 371 192 b 764 486 596 192 764 279 b 371 781 764 696 593 781 l 136 781 l 136 939 b 69 939 136 983 69 983 z m 136 258 l 136 714 l 371 714 b 697 486 546 714 697 663 b 371 258 697 319 558 258 z "},"Q":{"ha":972,"x_min":0,"x_max":0,"o":"m 778 118 b 903 486 860 208 903 339 b 486 979 903 760 753 979 b 69 486 222 979 69 767 b 486 -7 69 208 218 -7 b 728 71 582 -7 663 22 l 832 -33 b 881 15 863 -64 913 -17 z m 486 60 b 132 486 257 60 132 240 b 486 913 132 725 254 913 b 839 486 710 913 839 733 b 732 164 839 356 803 240 l 640 256 b 592 207 608 288 560 239 l 681 118 b 486 60 628 81 563 60 z "},"R":{"ha":972,"x_min":0,"x_max":0,"o":"m 771 15 b 826 51 790 -19 851 11 l 592 399 b 832 678 743 438 832 531 b 438 972 832 881 671 972 l 171 972 b 138 939 151 972 138 956 l 138 35 b 204 35 138 -10 204 -10 l 204 383 l 519 388 z m 204 450 l 204 906 l 438 906 b 765 678 621 906 765 849 b 438 450 765 514 629 450 z "},"Ŕ":{"ha":972,"x_min":0,"x_max":0,"o":"m 467 1061 l 544 1233 b 482 1254 564 1276 499 1301 l 424 1081 b 467 1061 414 1050 456 1038 z m 771 15 b 826 51 790 -19 851 11 l 592 399 b 832 678 743 438 832 531 b 438 972 832 881 671 972 l 171 972 b 138 939 151 972 138 956 l 138 35 b 204 35 138 -10 204 -10 l 204 383 l 519 388 z m 204 450 l 204 906 l 438 906 b 765 678 621 906 765 849 b 438 450 765 514 629 450 z "},"Ř":{"ha":972,"x_min":0,"x_max":0,"o":"m 397 1042 l 435 1042 b 568 1125 450 1042 460 1053 b 522 1183 607 1153 561 1214 l 417 1103 l 308 1183 b 264 1125 271 1213 225 1154 b 397 1042 382 1046 382 1042 z m 771 15 b 826 51 790 -19 851 11 l 592 399 b 832 678 743 438 832 531 b 438 972 832 881 671 972 l 171 972 b 138 939 151 972 138 956 l 138 35 b 204 35 138 -10 204 -10 l 204 383 l 519 388 z m 204 450 l 204 906 l 438 906 b 765 678 621 906 765 849 b 438 450 765 514 629 450 z "},"Ŗ":{"ha":972,"x_min":0,"x_max":0,"o":"m 826 51 l 592 399 b 832 678 743 438 832 531 b 438 972 832 881 671 972 l 171 972 b 138 939 151 972 138 956 l 138 35 b 204 35 138 -10 204 -10 l 204 383 l 519 388 l 771 15 b 826 51 790 -19 851 11 z m 438 450 l 204 450 l 204 906 l 438 906 b 765 678 621 906 765 849 b 438 450 765 514 629 450 z m 460 -85 b 400 -136 428 -85 400 -106 b 460 -190 400 -171 428 -190 l 461 -190 b 417 -243 460 -212 450 -236 b 419 -285 392 -246 394 -286 b 499 -239 450 -281 476 -271 b 519 -143 514 -212 519 -182 l 519 -136 b 460 -85 519 -106 493 -85 z "},"S":{"ha":972,"x_min":0,"x_max":0,"o":"m 465 -7 b 832 260 660 -7 832 83 b 489 526 832 472 699 508 b 219 708 319 539 219 553 b 483 913 219 851 340 913 b 744 810 592 913 711 881 b 813 817 769 756 824 782 b 483 979 786 926 621 979 b 153 708 296 979 153 888 b 483 460 153 510 282 474 b 765 260 658 447 765 428 b 465 60 765 119 614 60 b 203 172 358 60 229 92 b 142 149 189 214 125 197 b 465 -7 181 36 328 -7 z "},"Ś":{"ha":972,"x_min":0,"x_max":0,"o":"m 511 1061 l 589 1233 b 526 1254 608 1276 543 1301 l 468 1081 b 511 1061 458 1050 500 1038 z m 465 -7 b 832 260 660 -7 832 83 b 489 526 832 472 699 508 b 219 708 319 539 219 553 b 483 913 219 851 340 913 b 744 810 592 913 711 881 b 813 817 769 756 824 782 b 483 979 786 926 621 979 b 153 708 296 979 153 888 b 483 460 153 510 282 474 b 765 260 658 447 765 428 b 465 60 765 119 614 60 b 203 172 358 60 229 92 b 142 149 189 214 125 197 b 465 -7 181 36 328 -7 z "},"Š":{"ha":972,"x_min":0,"x_max":0,"o":"m 467 1042 l 504 1042 b 638 1125 519 1042 529 1053 b 592 1183 676 1153 631 1214 l 486 1103 l 378 1183 b 333 1125 340 1213 294 1154 b 467 1042 451 1046 451 1042 z m 465 -7 b 832 260 660 -7 832 83 b 489 526 832 472 699 508 b 219 708 319 539 219 553 b 483 913 219 851 340 913 b 744 810 592 913 711 881 b 813 817 769 756 824 782 b 483 979 786 926 621 979 b 153 708 296 979 153 888 b 483 460 153 510 282 474 b 765 260 658 447 765 428 b 465 60 765 119 614 60 b 203 172 358 60 229 92 b 142 149 189 214 125 197 b 465 -7 181 36 328 -7 z "},"Ş":{"ha":972,"x_min":0,"x_max":0,"o":"m 832 260 b 489 526 832 472 699 508 b 219 708 319 539 219 553 b 483 913 219 851 340 913 b 744 810 592 913 711 881 b 813 817 769 756 824 782 b 483 979 786 926 621 979 b 153 708 296 979 153 888 b 483 460 153 510 282 474 b 765 260 658 447 765 428 b 465 60 765 119 614 60 b 203 172 358 60 229 92 b 142 149 189 214 125 197 b 443 -7 178 42 313 -1 b 494 -156 519 -82 519 -119 b 385 -171 464 -200 399 -208 b 324 -197 363 -128 306 -161 b 550 -193 363 -285 489 -281 b 528 -4 603 -111 572 -57 b 832 260 694 14 832 103 z "},"Ș":{"ha":972,"x_min":0,"x_max":0,"o":"m 489 526 b 219 708 319 539 219 553 b 483 913 219 851 340 913 b 744 810 592 913 711 881 b 813 817 769 756 824 782 b 483 979 786 926 621 979 b 153 708 296 979 153 888 b 483 460 153 510 282 474 b 765 260 658 447 765 428 b 465 60 765 119 614 60 b 203 172 358 60 229 92 b 142 149 189 214 125 197 b 465 -7 181 36 328 -7 b 832 260 660 -7 832 83 b 489 526 832 472 699 508 z m 553 -200 l 553 -192 b 478 -125 553 -151 519 -125 b 401 -192 436 -125 401 -151 b 478 -260 401 -235 436 -260 l 479 -260 b 424 -326 478 -289 465 -318 b 426 -379 390 -331 394 -382 b 528 -321 465 -375 499 -362 b 553 -200 547 -289 554 -249 z "},"T":{"ha":972,"x_min":0,"x_max":0,"o":"m 451 35 b 521 35 451 -11 521 -11 l 521 911 l 854 904 b 854 972 900 903 900 972 l 118 972 b 118 904 71 972 74 903 l 451 911 z "},"Ŧ":{"ha":972,"x_min":0,"x_max":0,"o":"m 854 972 l 118 972 b 118 904 71 972 74 903 l 451 911 l 451 515 l 206 515 b 206 451 164 515 165 451 l 451 451 l 451 35 b 521 35 451 -11 521 -11 l 521 451 l 767 451 b 767 515 807 451 808 515 l 521 515 l 521 911 l 854 904 b 854 972 900 903 900 972 z "},"Ť":{"ha":972,"x_min":0,"x_max":0,"o":"m 468 1042 l 506 1042 b 639 1125 521 1042 531 1053 b 593 1183 678 1153 632 1214 l 488 1103 l 379 1183 b 335 1125 342 1213 296 1154 b 468 1042 453 1046 453 1042 z m 451 35 b 521 35 451 -11 521 -11 l 521 911 l 854 904 b 854 972 900 903 900 972 l 118 972 b 118 904 71 972 74 903 l 451 911 z "},"Ţ":{"ha":972,"x_min":0,"x_max":0,"o":"m 854 972 l 118 972 b 118 904 71 972 74 903 l 451 911 l 451 35 b 456 17 451 28 453 22 l 457 15 b 467 6 458 11 463 8 b 506 -121 528 -57 526 -89 b 408 -133 479 -160 421 -167 b 354 -157 389 -96 339 -125 b 556 -154 389 -235 501 -232 b 521 32 608 -72 568 -21 l 521 35 l 521 911 l 854 904 b 854 972 900 903 900 972 z "},"Ț":{"ha":972,"x_min":0,"x_max":0,"o":"m 854 972 l 118 972 b 118 904 71 972 74 903 l 451 911 l 451 35 b 521 35 451 -11 521 -11 l 521 911 l 854 904 b 854 972 900 903 900 972 z m 553 -200 l 553 -192 b 478 -125 553 -151 519 -125 b 401 -192 436 -125 401 -151 b 478 -260 401 -235 436 -260 l 479 -260 b 424 -326 478 -289 465 -318 b 426 -379 390 -331 394 -382 b 528 -321 465 -375 499 -362 b 553 -200 547 -289 554 -249 z "},"U":{"ha":972,"x_min":0,"x_max":0,"o":"m 486 -7 b 840 347 700 -7 840 135 l 840 939 b 774 939 840 983 774 983 l 774 347 b 486 60 774 171 663 60 b 199 347 307 60 199 169 l 199 939 b 132 939 199 983 132 983 l 132 347 b 486 -7 132 138 267 -7 z "},"Ú":{"ha":972,"x_min":0,"x_max":0,"o":"m 468 1061 l 546 1233 b 483 1254 565 1276 500 1301 l 425 1081 b 468 1061 415 1050 457 1038 z m 486 -7 b 840 347 700 -7 840 135 l 840 939 b 774 939 840 983 774 983 l 774 347 b 486 60 774 171 663 60 b 199 347 307 60 199 169 l 199 939 b 132 939 199 983 132 983 l 132 347 b 486 -7 132 138 267 -7 z "},"Û":{"ha":972,"x_min":0,"x_max":0,"o":"m 333 1125 b 378 1067 294 1099 340 1038 l 486 1147 l 592 1067 b 638 1125 631 1036 678 1099 b 504 1208 569 1171 519 1208 l 467 1208 b 333 1125 451 1208 403 1171 z m 486 -7 b 840 347 700 -7 840 135 l 840 939 b 774 939 840 983 774 983 l 774 347 b 486 60 774 171 663 60 b 199 347 307 60 199 169 l 199 939 b 132 939 199 983 132 983 l 132 347 b 486 -7 132 138 267 -7 z "},"Ü":{"ha":972,"x_min":0,"x_max":0,"o":"m 368 1042 b 435 1101 404 1042 435 1065 b 368 1161 435 1139 404 1161 b 301 1101 331 1161 301 1139 b 368 1042 301 1065 331 1042 z m 604 1042 b 671 1101 640 1042 671 1065 b 604 1161 671 1139 640 1161 b 538 1101 567 1161 538 1139 b 604 1042 538 1065 567 1042 z m 486 -7 b 840 347 700 -7 840 135 l 840 939 b 774 939 840 983 774 983 l 774 347 b 486 60 774 171 663 60 b 199 347 307 60 199 169 l 199 939 b 132 939 199 983 132 983 l 132 347 b 486 -7 132 138 267 -7 z "},"Ù":{"ha":972,"x_min":0,"x_max":0,"o":"m 504 1061 b 547 1081 515 1038 557 1050 l 489 1254 b 426 1233 472 1301 407 1276 z m 486 -7 b 840 347 700 -7 840 135 l 840 939 b 774 939 840 983 774 983 l 774 347 b 486 60 774 171 663 60 b 199 347 307 60 199 169 l 199 939 b 132 939 199 983 132 983 l 132 347 b 486 -7 132 138 267 -7 z "},"Ű":{"ha":972,"x_min":0,"x_max":0,"o":"m 453 1061 l 531 1233 b 468 1254 550 1276 485 1301 l 410 1081 b 453 1061 400 1050 442 1038 z m 576 1061 l 654 1233 b 592 1254 674 1276 608 1301 l 533 1081 b 576 1061 524 1050 565 1038 z m 486 -7 b 840 347 700 -7 840 135 l 840 939 b 774 939 840 983 774 983 l 774 347 b 486 60 774 171 663 60 b 199 347 307 60 199 169 l 199 939 b 132 939 199 983 132 983 l 132 347 b 486 -7 132 138 267 -7 z "},"Ū":{"ha":972,"x_min":0,"x_max":0,"o":"m 332 1106 b 332 1042 289 1106 290 1042 l 642 1042 b 642 1106 685 1042 683 1106 z m 486 -7 b 840 347 700 -7 840 135 l 840 939 b 774 939 840 983 774 983 l 774 347 b 486 60 774 171 663 60 b 199 347 307 60 199 169 l 199 939 b 132 939 199 983 132 983 l 132 347 b 486 -7 132 138 267 -7 z "},"Ų":{"ha":972,"x_min":0,"x_max":0,"o":"m 774 939 l 774 347 b 486 60 774 171 663 60 b 199 347 307 60 199 169 l 199 939 b 132 939 199 983 132 983 l 132 347 b 431 -4 132 156 244 18 b 417 -151 397 -46 375 -87 b 597 -154 465 -221 567 -225 b 549 -133 611 -126 567 -99 b 461 -121 538 -164 485 -157 b 499 -7 443 -93 442 -64 b 840 347 706 -1 840 139 l 840 939 b 774 939 840 983 774 983 z "},"Ů":{"ha":972,"x_min":0,"x_max":0,"o":"m 488 1042 b 613 1168 557 1042 613 1097 b 488 1293 613 1238 557 1293 b 361 1168 417 1293 361 1238 b 488 1042 361 1097 417 1042 z m 488 1103 b 422 1168 449 1103 422 1132 b 488 1232 422 1203 449 1232 b 550 1168 522 1232 550 1203 b 488 1103 550 1132 522 1103 z m 486 -7 b 840 347 700 -7 840 135 l 840 939 b 774 939 840 983 774 983 l 774 347 b 486 60 774 171 663 60 b 199 347 307 60 199 169 l 199 939 b 132 939 199 983 132 983 l 132 347 b 486 -7 132 138 267 -7 z "},"V":{"ha":972,"x_min":0,"x_max":0,"o":"m 454 22 b 518 22 465 -8 507 -7 l 860 925 b 796 950 876 968 813 993 l 486 128 l 176 950 b 113 925 161 992 96 969 z "},"W":{"ha":972,"x_min":0,"x_max":0,"o":"m 281 22 l 483 686 l 690 22 b 754 28 700 -8 747 -7 l 929 933 b 863 944 938 976 871 989 l 708 165 l 515 818 b 453 818 506 849 461 849 l 261 167 l 107 944 b 40 933 99 988 32 978 l 215 28 b 281 22 221 -4 271 -11 z "},"Ẃ":{"ha":972,"x_min":0,"x_max":0,"o":"m 467 1061 l 544 1233 b 482 1254 564 1276 499 1301 l 424 1081 b 467 1061 414 1050 456 1038 z m 281 22 l 483 686 l 690 22 b 754 28 700 -8 747 -7 l 929 933 b 863 944 938 976 871 989 l 708 165 l 515 818 b 453 818 506 849 461 849 l 261 167 l 107 944 b 40 933 99 988 32 978 l 215 28 b 281 22 221 -4 271 -11 z "},"Ŵ":{"ha":972,"x_min":0,"x_max":0,"o":"m 332 1125 b 376 1067 293 1099 339 1038 l 485 1147 l 590 1067 b 636 1125 629 1036 676 1099 b 503 1208 568 1171 518 1208 l 465 1208 b 332 1125 450 1208 401 1171 z m 281 22 l 483 686 l 690 22 b 754 28 700 -8 747 -7 l 929 933 b 863 944 938 976 871 989 l 708 165 l 515 818 b 453 818 506 849 461 849 l 261 167 l 107 944 b 40 933 99 988 32 978 l 215 28 b 281 22 221 -4 271 -11 z "},"Ẅ":{"ha":972,"x_min":0,"x_max":0,"o":"m 367 1042 b 433 1101 403 1042 433 1065 b 367 1161 433 1139 403 1161 b 300 1101 329 1161 300 1139 b 367 1042 300 1065 329 1042 z m 603 1042 b 669 1101 639 1042 669 1065 b 603 1161 669 1139 639 1161 b 536 1101 565 1161 536 1139 b 603 1042 536 1065 565 1042 z m 281 22 l 483 686 l 690 22 b 754 28 700 -8 747 -7 l 929 933 b 863 944 938 976 871 989 l 708 165 l 515 818 b 453 818 506 849 461 849 l 261 167 l 107 944 b 40 933 99 988 32 978 l 215 28 b 281 22 221 -4 271 -11 z "},"Ẁ":{"ha":972,"x_min":0,"x_max":0,"o":"m 503 1061 b 546 1081 514 1038 556 1050 l 488 1254 b 425 1233 471 1301 406 1276 z m 281 22 l 483 686 l 690 22 b 754 28 700 -8 747 -7 l 929 933 b 863 944 938 976 871 989 l 708 165 l 515 818 b 453 818 506 849 461 849 l 261 167 l 107 944 b 40 933 99 988 32 978 l 215 28 b 281 22 221 -4 271 -11 z "},"X":{"ha":972,"x_min":0,"x_max":0,"o":"m 199 13 l 485 431 l 771 13 b 825 56 797 -25 853 19 l 529 486 l 825 917 b 771 960 851 953 801 994 l 485 542 l 199 960 b 144 917 174 996 118 954 l 442 486 l 144 56 b 199 13 118 18 175 -22 z "},"Y":{"ha":972,"x_min":0,"x_max":0,"o":"m 451 35 b 521 35 451 -11 521 -11 l 519 476 l 853 917 b 799 960 879 953 829 994 l 485 544 l 171 960 b 117 917 144 996 90 954 l 450 476 z "},"Ý":{"ha":972,"x_min":0,"x_max":0,"o":"m 467 1061 l 544 1233 b 482 1254 564 1276 499 1301 l 424 1081 b 467 1061 414 1050 456 1038 z m 451 35 b 521 35 451 -11 521 -11 l 519 476 l 853 917 b 799 960 879 953 829 994 l 485 544 l 171 960 b 117 917 144 996 90 954 l 450 476 z "},"Ŷ":{"ha":972,"x_min":0,"x_max":0,"o":"m 332 1125 b 376 1067 293 1099 339 1038 l 485 1147 l 590 1067 b 636 1125 629 1036 676 1099 b 503 1208 568 1171 518 1208 l 465 1208 b 332 1125 450 1208 401 1171 z m 451 35 b 521 35 451 -11 521 -11 l 519 476 l 853 917 b 799 960 879 953 829 994 l 485 544 l 171 960 b 117 917 144 996 90 954 l 450 476 z "},"Ÿ":{"ha":972,"x_min":0,"x_max":0,"o":"m 367 1042 b 433 1101 403 1042 433 1065 b 367 1161 433 1139 403 1161 b 300 1101 329 1161 300 1139 b 367 1042 300 1065 329 1042 z m 603 1042 b 669 1101 639 1042 669 1065 b 603 1161 669 1139 639 1161 b 536 1101 565 1161 536 1139 b 603 1042 536 1065 565 1042 z m 451 35 b 521 35 451 -11 521 -11 l 519 476 l 853 917 b 799 960 879 953 829 994 l 485 544 l 171 960 b 117 917 144 996 90 954 l 450 476 z "},"Ỳ":{"ha":972,"x_min":0,"x_max":0,"o":"m 503 1061 b 546 1081 514 1038 556 1050 l 488 1254 b 425 1233 471 1301 406 1276 z m 451 35 b 521 35 451 -11 521 -11 l 519 476 l 853 917 b 799 960 879 953 829 994 l 485 544 l 171 960 b 117 917 144 996 90 954 l 450 476 z "},"Z":{"ha":972,"x_min":0,"x_max":0,"o":"m 172 0 l 799 0 b 799 68 843 0 846 68 l 239 68 l 826 917 b 799 972 842 939 831 972 l 172 972 b 172 904 126 972 126 904 l 732 904 l 144 56 b 172 0 131 35 142 0 z "},"Ź":{"ha":972,"x_min":0,"x_max":0,"o":"m 497 1061 l 575 1233 b 513 1254 594 1276 529 1301 l 454 1081 b 497 1061 444 1050 486 1038 z m 172 0 l 799 0 b 799 68 843 0 846 68 l 239 68 l 826 917 b 799 972 842 939 831 972 l 172 972 b 172 904 126 972 126 904 l 732 904 l 144 56 b 172 0 131 35 142 0 z "},"Ž":{"ha":972,"x_min":0,"x_max":0,"o":"m 467 1042 l 504 1042 b 638 1125 519 1042 529 1053 b 592 1183 676 1153 631 1214 l 486 1103 l 378 1183 b 333 1125 340 1213 294 1154 b 467 1042 451 1046 451 1042 z m 172 0 l 799 0 b 799 68 843 0 846 68 l 239 68 l 826 917 b 799 972 842 939 831 972 l 172 972 b 172 904 126 972 126 904 l 732 904 l 144 56 b 172 0 131 35 142 0 z "},"Ż":{"ha":972,"x_min":0,"x_max":0,"o":"m 486 1083 b 553 1143 522 1083 553 1107 b 486 1203 553 1181 522 1203 b 419 1143 449 1203 419 1181 b 486 1083 419 1107 449 1083 z m 172 0 l 799 0 b 799 68 843 0 846 68 l 239 68 l 826 917 b 799 972 842 939 831 972 l 172 972 b 172 904 126 972 126 904 l 732 904 l 144 56 b 172 0 131 35 142 0 z "}}}
